<?xml version="1.0" encoding="utf-8"?><!-- Generator: Adobe Illustrator 23.0.1, SVG Export Plug-In . SVG Version: 6.00 Build 0)  --><svg xmlns="http://www.w3.org/2000/svg" xmlns:xlink="http://www.w3.org/1999/xlink" version="1.1" id="Layer_1" x="0px" y="0px" viewBox="0 0 726.534 114.118" enable-background="new 0 0 726.534 114.118" xml:space="preserve">
<rect x="622.185" y="4.5" fill="none" stroke="#000000" stroke-width="9" width="99.85" height="105.118"/>
<path fill="#000000" d="M222.369,36.935c3.313,0,2.913,7.993-0.309,8.024c0.01,0.041-27.106,0.034-27.16-0.048  c0.089-0.055,0.092,30.124,0,30.022c-0.221,3.517-7.946,3.422-7.952-0.004c-0.082-0.026-0.249-29.743-0.112-29.763  c-0.123,0.021-69.926,0.116-70.069-0.007c-6.627-0.143-5.648,6.729-0.062,6.79c0.082-0.082,36.01,0.082,36.03,0  c16.904,0,16.184,25.115,1.217,25.094c0.122,0-49.814-0.041-49.855-0.021c-5.057-0.041-6.002-7.612,0.727-7.653  c0,0.041,47.218-0.143,47.259-0.021c4.751,0,4.506-9.291,0.428-9.229c0,0-40.604,0.041-40.747,0.021  c-14.865-0.041-14.002-23.27,0.21-23.188C112.077,37.054,222.369,36.935,222.369,36.935z"/>
<path fill="#000000" d="M295.429,36.902c3.213,0.088,3.708,1.727,3.714,1.732c0.055,0.039,22.494,27.881,22.385,27.69  c2.501,2.556,4.323,2.691,5.982,0.136c0.19-0.245,21.26-29.553,21.206-29.525c0-0.082,10.358,0.109,10.358,0  c-0.136,0.163-29.716,39.122-29.743,39.122c-3.045,3.345-6.063,3.263-9.488,0.137c0.027,0-25.516-31.231-25.516-31.231  s-56.22-0.072-56.172-0.003c-0.055,0.082-0.007,7.69-0.007,7.663c-0.027,0.055,44.434,0.092,44.485,0.092  c4.231,0,3.925,7.565,0.102,7.565c0,0-44.207,0.01-44.248,0.01c0.031-0.02,0.176,9.557,0.044,9.455  c0.007-0.037,44.18-0.027,44.23-0.027c4.18,0,3.881,7.375-0.078,7.374c-0.001,0-50.778,0.037-50.773,0.05  c-3.573,0.001-2.783-2.783-2.814-2.782c0.028,0-0.063-34.53-0.09-34.531c-0.15-3.238,2.878-3.098,2.88-3.096  C231.832,36.769,295.392,36.901,295.429,36.902z"/>
<path fill="#000000" d="M481.554,67.466c3.208,3.316,5.247,3.371,5.302-0.055c-0.055-0.027,0.014-30.473,0.004-30.47  c0.108,0,7.146,0.075,7.119,0.021c-0.027,0-0.055,36.132-0.055,36.268c0.017,4.944-9.403,5.203-13.104,2.937  c0.081-0.027-42.121-31.113-42.063-31.17c0.111,0.064-0.009,27.15,0,27.12c0.061,0.003-0.086,5.036-3.722,5.039  c0.005-0.042-67.408-0.085-67.374-0.057c-4.392,0.006-3.483-2.942-3.477-2.946c0.04,0.061-0.082-33.723-0.041-33.652  c0,0.001-0.915-3.567,3.62-3.516c-0.036,0.001,49.528-0.052,49.732-0.052c3.364,0,3.331,8.333-0.367,8.33  c-0.114,0-44.665,0.01-44.645,0.01c0,0.01-0.031,7.952-0.031,7.912c0,0.041,44.907,0.092,44.948,0.01  c3.354,0.03,3.259,6.878-0.048,6.97c0.027,0.04-44.35,0.085-44.431-0.018c0.061,0.092,0.037,9.716,0.058,9.747  c-0.122,0.081,55.51,0.048,55.51,0.048s1.96,0.22,1.96-1.924c0-0.822-0.023-24.916-0.057-25.121c0.08-8.074,9.889-8.401,17.78-1.407  C448.053,41.339,481.717,67.656,481.554,67.466z"/>
<path fill="#000000" d="M564.34,37.016c4.432-0.027,3.997,7.477,0.326,7.504c0.027,0-45.158,0-45.213,0  c-8.717,0.007-8.802,8.244,0.517,8.36c-0.026-0.109,36.907-0.054,36.988,0c17.646,0,14.641,24.224,0.803,24.129  c0.172,0.173-53.532-0.109-50.025,0c-4.023,0-4.567-8.781-0.652-8.863c-0.271-0.055,49.89,0.245,50.024,0.055  c5.438,0,4.936-8.074-0.121-8.156c-0.028-0.163-41.706,0.027-41.706,0.027c-15.252,0.027-14.913-23.109-0.285-23.109  C514.75,36.962,564.395,36.989,564.34,37.016z"/>
<rect x="651.036" y="36.779" fill="#000000" width="42.146" height="40.643"/>
<polygon fill="#000000" stroke="#000000" stroke-width="0.0303" points="28.241,89.861 28.863,74.272 28.552,73.981 27.926,73.671   26.719,73.671 14.009,76.143 15.673,72.168 15.673,70.92 15.673,70.299 15.051,69.382 0.031,58.102 3.403,56.873 3.731,56.543   4.316,55.626 4.316,54.713 1.57,45.864 8.933,47.092 9.849,47.092 10.766,46.781 11.662,45.553 12.745,42.532 19.174,50.186   19.574,50.517 19.905,50.719 20.253,50.791 20.73,50.755 21.04,50.626 21.315,50.388 21.445,50.113 21.517,49.709 21.407,49.196   18.185,32.399 22.398,35.186 23.952,35.497 24.853,34.855 25.49,34.27 30.091,23.865 34.392,34.27 35.018,34.855 35.931,35.497   37.489,35.186 41.686,32.399 38.48,49.196 38.35,49.709 38.443,50.113 38.552,50.388 38.826,50.626 39.138,50.755 39.614,50.791   39.982,50.719 40.309,50.517 40.696,50.186 47.142,42.532 48.204,45.553 49.121,46.781 50.038,47.092 50.954,47.092 58.297,45.864   55.567,54.713 55.567,55.626 56.156,56.543 56.468,56.873 59.856,58.102 44.836,69.382 44.194,70.299 44.194,70.92 44.194,72.168   45.862,76.143 33.148,73.671 31.956,73.671 31.319,73.981 31.003,74.272 31.646,89.861 "/>
<g>
	<g>
		<path fill="#000000" d="M228.778,108.779l3.352-16.004h3.286l-3.341,16.004H228.778z"/>
		<path fill="#000000" d="M237.577,97.186h2.969l-0.306,1.507c0.743-0.641,1.436-1.098,2.08-1.37    c0.644-0.273,1.322-0.409,2.036-0.409c0.954,0,1.705,0.272,2.254,0.818s0.824,1.271,0.824,2.173c0,0.407-0.12,1.179-0.36,2.314    l-1.364,6.561h-3.133l1.375-6.583c0.204-0.982,0.306-1.568,0.306-1.758c0-0.399-0.118-0.715-0.355-0.944    c-0.236-0.229-0.566-0.344-0.988-0.344c-0.458,0-0.968,0.193-1.528,0.579s-1.001,0.895-1.321,1.528    c-0.233,0.451-0.495,1.372-0.786,2.762l-0.994,4.76h-3.133L237.577,97.186z"/>
		<path fill="#000000" d="M248.363,105.537l3.035-0.48c0.269,0.641,0.604,1.094,1.004,1.359c0.4,0.266,0.946,0.398,1.638,0.398    c0.713,0,1.285-0.16,1.714-0.48c0.298-0.219,0.448-0.484,0.448-0.797c0-0.211-0.077-0.4-0.23-0.567    c-0.16-0.16-0.593-0.356-1.299-0.59c-1.893-0.626-3.064-1.121-3.515-1.484c-0.706-0.568-1.059-1.311-1.059-2.228    s0.342-1.706,1.026-2.369c0.953-0.924,2.369-1.386,4.247-1.386c1.492,0,2.62,0.272,3.384,0.818s1.248,1.284,1.452,2.216    l-2.893,0.503c-0.153-0.423-0.4-0.739-0.742-0.95c-0.466-0.284-1.026-0.426-1.681-0.426s-1.126,0.109-1.414,0.327    c-0.288,0.219-0.431,0.47-0.431,0.754c0,0.291,0.146,0.531,0.437,0.721c0.182,0.116,0.768,0.32,1.757,0.611    c1.529,0.443,2.551,0.88,3.068,1.31c0.728,0.604,1.092,1.332,1.092,2.184c0,1.099-0.462,2.052-1.387,2.86    c-0.924,0.808-2.227,1.211-3.908,1.211c-1.674,0-2.968-0.307-3.881-0.922C249.311,107.515,248.691,106.65,248.363,105.537z"/>
		<path fill="#000000" d="M263.527,97.186h2.969l-0.251,1.19c0.633-0.524,1.226-0.899,1.779-1.125    c0.553-0.226,1.146-0.338,1.779-0.338c1.215,0,2.192,0.418,2.931,1.255s1.108,2.085,1.108,3.744c0,2.09-0.637,3.854-1.911,5.295    c-1.092,1.23-2.384,1.845-3.875,1.845c-1.536,0-2.696-0.622-3.482-1.866l-1.255,6.015h-3.133L263.527,97.186z M265.415,103.834    c0,0.902,0.22,1.604,0.661,2.102s0.959,0.748,1.556,0.748c0.517,0,1.015-0.188,1.496-0.563s0.879-0.997,1.195-1.867    c0.317-0.869,0.475-1.676,0.475-2.418c0-0.866-0.208-1.53-0.623-1.992c-0.415-0.462-0.942-0.693-1.583-0.693    c-0.597,0-1.141,0.213-1.632,0.639s-0.872,1.052-1.141,1.878C265.55,102.493,265.415,103.216,265.415,103.834z"/>
		<path fill="#000000" d="M277.282,97.186h3.133l-2.423,11.594h-3.133L277.282,97.186z M278.199,92.775h3.133l-0.589,2.838h-3.133    L278.199,92.775z"/>
		<path fill="#000000" d="M283.319,97.186h2.926l-0.469,2.249c1.091-1.682,2.274-2.521,3.548-2.521c0.451,0,0.935,0.112,1.452,0.338    l-1.201,2.565c-0.284-0.102-0.586-0.152-0.906-0.152c-0.539,0-1.086,0.203-1.643,0.611c-0.557,0.407-0.992,0.951-1.304,1.632    c-0.313,0.681-0.623,1.76-0.928,3.236l-0.764,3.636h-3.133L283.319,97.186z"/>
		<path fill="#000000" d="M301.059,103.954h-7.86c-0.007,0.124-0.011,0.219-0.011,0.284c0,0.771,0.22,1.394,0.661,1.866    c0.44,0.474,0.977,0.71,1.61,0.71c1.041,0,1.852-0.539,2.434-1.616l2.806,0.47c-0.545,1.128-1.275,1.975-2.188,2.538    c-0.914,0.564-1.938,0.846-3.073,0.846c-1.558,0-2.824-0.492-3.799-1.479c-0.976-0.986-1.463-2.291-1.463-3.914    c0-1.586,0.44-2.998,1.321-4.235c1.201-1.674,2.915-2.511,5.142-2.511c1.419,0,2.547,0.438,3.384,1.315s1.255,2.104,1.255,3.684    C301.277,102.67,301.204,103.35,301.059,103.954z M298.417,102.044c0.007-0.139,0.011-0.244,0.011-0.317    c0-0.858-0.193-1.502-0.579-1.932s-0.902-0.645-1.55-0.645s-1.228,0.244-1.741,0.731c-0.513,0.488-0.861,1.208-1.042,2.162    H298.417z"/>
		<path fill="#000000" d="M312.914,108.779h-2.969l0.262-1.256c-0.568,0.546-1.126,0.938-1.676,1.174    c-0.55,0.236-1.17,0.354-1.861,0.354c-1.201,0-2.174-0.409-2.92-1.228c-0.746-0.819-1.119-2.028-1.119-3.63    c0-1.856,0.524-3.533,1.572-5.033c1.048-1.499,2.435-2.248,4.159-2.248c1.558,0,2.726,0.618,3.504,1.855l1.255-5.993h3.133    L312.914,108.779z M305.676,104.063c0,0.829,0.209,1.478,0.628,1.943c0.418,0.466,0.933,0.698,1.544,0.698    c0.568,0,1.097-0.194,1.588-0.584s0.884-0.984,1.179-1.785s0.442-1.568,0.442-2.304c0-0.836-0.226-1.514-0.677-2.03    s-0.972-0.775-1.561-0.775c-0.917,0-1.67,0.51-2.26,1.529C305.971,101.774,305.676,102.877,305.676,104.063z"/>
		<path fill="#000000" d="M321.987,108.779l3.341-16.004h3.144l-1.125,5.349c0.575-0.437,1.112-0.747,1.61-0.933    s1.042-0.278,1.632-0.278c1.223,0,2.202,0.409,2.937,1.228c0.735,0.819,1.103,2.011,1.103,3.575c0,1.056-0.173,2.08-0.519,3.073    c-0.346,0.993-0.808,1.802-1.387,2.424s-1.186,1.084-1.823,1.387c-0.637,0.302-1.305,0.452-2.003,0.452    c-1.659,0-2.878-0.728-3.657-2.183l-0.404,1.91H321.987z M326.212,104.053c0,0.778,0.22,1.411,0.661,1.899    c0.44,0.487,0.958,0.731,1.556,0.731c0.524,0,1.024-0.189,1.501-0.568c0.477-0.378,0.873-0.982,1.19-1.812    c0.316-0.83,0.475-1.667,0.475-2.511c0-0.823-0.213-1.469-0.639-1.938c-0.426-0.469-0.94-0.704-1.544-0.704    c-0.786,0-1.463,0.364-2.031,1.092C326.601,101.239,326.212,102.51,326.212,104.053z"/>
		<path fill="#000000" d="M336.703,97.186h3.122l0.786,5.775c0.197,1.484,0.306,2.525,0.328,3.122    c0.408-1.187,0.968-2.438,1.681-3.756l2.773-5.142h3.319l-7.162,12.729c-0.589,1.055-1.054,1.794-1.392,2.216    s-0.746,0.753-1.223,0.993s-1.05,0.36-1.719,0.36c-0.663,0-1.408-0.116-2.238-0.35l0.273-2.336    c0.378,0.109,0.746,0.164,1.103,0.164c0.96,0,1.75-0.729,2.369-2.184L336.703,97.186z"/>
		<path fill="#000000" d="M355.163,99.511l0.48-2.325h1.528l0.382-1.855l3.592-2.162l-0.84,4.018h1.91l-0.48,2.325h-1.921    l-1.015,4.858c-0.182,0.881-0.273,1.383-0.273,1.506c0,0.24,0.077,0.428,0.229,0.563s0.429,0.202,0.83,0.202    c0.138,0,0.484-0.025,1.037-0.076l-0.491,2.325c-0.539,0.109-1.092,0.163-1.66,0.163c-1.106,0-1.91-0.213-2.413-0.638    c-0.502-0.426-0.753-1.018-0.753-1.774c0-0.356,0.134-1.179,0.404-2.467l0.972-4.662H355.163z"/>
		<path fill="#000000" d="M364.999,108.779h-3.133l3.352-16.004h3.133l-1.201,5.698c0.706-0.553,1.365-0.951,1.976-1.195    s1.266-0.365,1.965-0.365c0.939,0,1.681,0.269,2.227,0.808c0.546,0.538,0.819,1.244,0.819,2.118c0,0.466-0.102,1.186-0.306,2.161    l-1.419,6.779h-3.133l1.452-6.91c0.153-0.75,0.229-1.23,0.229-1.441c0-0.386-0.12-0.694-0.36-0.928    c-0.24-0.232-0.568-0.35-0.982-0.35c-0.524,0-1.026,0.183-1.507,0.546c-0.626,0.48-1.103,1.07-1.43,1.769    c-0.182,0.386-0.422,1.292-0.721,2.719L364.999,108.779z"/>
		<path fill="#000000" d="M386.768,103.954h-7.86c-0.008,0.124-0.011,0.219-0.011,0.284c0,0.771,0.22,1.394,0.66,1.866    c0.44,0.474,0.977,0.71,1.61,0.71c1.041,0,1.852-0.539,2.435-1.616l2.806,0.47c-0.546,1.128-1.275,1.975-2.189,2.538    c-0.913,0.564-1.938,0.846-3.073,0.846c-1.557,0-2.823-0.492-3.799-1.479s-1.463-2.291-1.463-3.914    c0-1.586,0.44-2.998,1.321-4.235c1.201-1.674,2.915-2.511,5.142-2.511c1.419,0,2.548,0.438,3.385,1.315s1.255,2.104,1.255,3.684    C386.986,102.67,386.913,103.35,386.768,103.954z M384.125,102.044c0.008-0.139,0.012-0.244,0.012-0.317    c0-0.858-0.193-1.502-0.579-1.932s-0.902-0.645-1.55-0.645c-0.648,0-1.229,0.244-1.741,0.731    c-0.514,0.488-0.861,1.208-1.043,2.162H384.125z"/>
		<path fill="#000000" d="M401.986,104.412l3.046,0.492c-0.502,1.354-1.244,2.383-2.227,3.089s-2.122,1.059-3.417,1.059    c-1.478,0-2.649-0.439-3.516-1.32s-1.299-2.093-1.299-3.636c0-1.259,0.262-2.448,0.786-3.569c0.523-1.121,1.313-2.004,2.369-2.647    c1.055-0.645,2.212-0.966,3.472-0.966c1.368,0,2.459,0.356,3.274,1.069c0.815,0.714,1.273,1.652,1.376,2.816l-2.98,0.316    c-0.073-0.647-0.271-1.124-0.595-1.43c-0.324-0.306-0.748-0.459-1.272-0.459c-0.604,0-1.168,0.227-1.691,0.678    c-0.524,0.451-0.927,1.126-1.207,2.024c-0.28,0.899-0.42,1.741-0.42,2.527c0,0.685,0.167,1.212,0.502,1.583    s0.754,0.557,1.256,0.557s0.986-0.182,1.452-0.546C401.36,105.687,401.724,105.141,401.986,104.412z"/>
		<path fill="#000000" d="M410.982,100.472l-3.057-0.262c0.35-1.034,0.959-1.842,1.828-2.424c0.87-0.582,2.021-0.873,3.456-0.873    c1.491,0,2.594,0.3,3.308,0.9c0.713,0.601,1.069,1.334,1.069,2.199c0,0.35-0.03,0.721-0.093,1.114    c-0.062,0.393-0.278,1.426-0.649,3.1c-0.306,1.383-0.458,2.352-0.458,2.904c0,0.495,0.087,1.044,0.262,1.648h-3.046    c-0.124-0.422-0.2-0.858-0.229-1.31c-0.458,0.509-0.986,0.9-1.583,1.173c-0.597,0.273-1.197,0.409-1.801,0.409    c-0.961,0-1.754-0.314-2.38-0.943c-0.626-0.63-0.939-1.439-0.939-2.43c0-1.106,0.345-1.99,1.032-2.652s1.916-1.063,3.685-1.201    c1.491-0.124,2.489-0.272,2.991-0.447c0.131-0.437,0.196-0.786,0.196-1.048c0-0.335-0.135-0.615-0.404-0.841    c-0.269-0.226-0.669-0.339-1.2-0.339c-0.561,0-1.003,0.115-1.327,0.344C411.319,99.724,411.098,100.05,410.982,100.472z     M413.962,103.375c-0.189,0.052-0.44,0.099-0.753,0.143c-1.572,0.189-2.599,0.466-3.079,0.829    c-0.342,0.263-0.513,0.615-0.513,1.06c0,0.363,0.131,0.671,0.393,0.922s0.607,0.377,1.037,0.377c0.474,0,0.919-0.114,1.338-0.344    c0.418-0.229,0.731-0.524,0.938-0.885s0.391-0.922,0.552-1.687L413.962,103.375z"/>
		<path fill="#000000" d="M421.244,97.186h2.925l-0.469,2.249c1.092-1.682,2.274-2.521,3.548-2.521c0.451,0,0.935,0.112,1.452,0.338    l-1.201,2.565c-0.284-0.102-0.586-0.152-0.906-0.152c-0.538,0-1.086,0.203-1.643,0.611c-0.557,0.407-0.992,0.951-1.305,1.632    c-0.313,0.681-0.622,1.76-0.928,3.236l-0.765,3.636h-3.133L421.244,97.186z"/>
		<path fill="#000000" d="M438.985,103.954h-7.86c-0.008,0.124-0.011,0.219-0.011,0.284c0,0.771,0.22,1.394,0.66,1.866    c0.44,0.474,0.977,0.71,1.61,0.71c1.041,0,1.852-0.539,2.435-1.616l2.806,0.47c-0.546,1.128-1.275,1.975-2.189,2.538    c-0.913,0.564-1.938,0.846-3.073,0.846c-1.557,0-2.823-0.492-3.799-1.479s-1.463-2.291-1.463-3.914    c0-1.586,0.44-2.998,1.321-4.235c1.201-1.674,2.915-2.511,5.142-2.511c1.419,0,2.548,0.438,3.385,1.315s1.255,2.104,1.255,3.684    C439.202,102.67,439.13,103.35,438.985,103.954z M436.342,102.044c0.008-0.139,0.012-0.244,0.012-0.317    c0-0.858-0.193-1.502-0.579-1.932s-0.902-0.645-1.55-0.645c-0.648,0-1.229,0.244-1.741,0.731    c-0.514,0.488-0.861,1.208-1.043,2.162H436.342z"/>
		<path fill="#000000" d="M447.315,97.186h3.122l0.786,5.775c0.196,1.484,0.306,2.525,0.327,3.122    c0.407-1.187,0.968-2.438,1.682-3.756l2.772-5.142h3.318l-7.161,12.729c-0.59,1.055-1.054,1.794-1.392,2.216    c-0.339,0.422-0.746,0.753-1.223,0.993c-0.478,0.24-1.05,0.36-1.72,0.36c-0.662,0-1.408-0.116-2.238-0.35l0.273-2.336    c0.378,0.109,0.746,0.164,1.103,0.164c0.961,0,1.75-0.729,2.369-2.184L447.315,97.186z"/>
		<path fill="#000000" d="M459.236,103.965c0-2.146,0.606-3.859,1.817-5.137c1.212-1.276,2.805-1.915,4.776-1.915    c1.71,0,3.046,0.471,4.007,1.413s1.44,2.211,1.44,3.805c0,1.878-0.6,3.501-1.801,4.869s-2.81,2.052-4.825,2.052    c-1.092,0-2.06-0.218-2.904-0.654c-0.844-0.437-1.474-1.056-1.889-1.856C459.444,105.741,459.236,104.882,459.236,103.965z     M468.165,101.727c0-0.742-0.216-1.337-0.649-1.784c-0.433-0.448-0.991-0.672-1.676-0.672c-0.677,0-1.277,0.21-1.801,0.628    c-0.524,0.419-0.932,1.026-1.223,1.823s-0.437,1.53-0.437,2.199c0,0.83,0.226,1.489,0.677,1.977s1.019,0.731,1.703,0.731    c0.858,0,1.579-0.367,2.161-1.103C467.751,104.485,468.165,103.219,468.165,101.727z"/>
		<path fill="#000000" d="M474.836,97.186h3.133l-1.43,6.867c-0.175,0.822-0.262,1.335-0.262,1.539c0,0.335,0.123,0.622,0.371,0.862    c0.247,0.24,0.563,0.36,0.949,0.36c0.276,0,0.55-0.053,0.819-0.158c0.269-0.105,0.546-0.266,0.829-0.48    c0.284-0.215,0.539-0.46,0.765-0.737c0.226-0.276,0.437-0.64,0.633-1.092c0.139-0.334,0.287-0.88,0.448-1.637l1.156-5.524h3.134    l-2.424,11.594h-2.926l0.328-1.572c-1.281,1.23-2.675,1.845-4.182,1.845c-0.953,0-1.703-0.272-2.249-0.818    s-0.818-1.277-0.818-2.194c0-0.4,0.123-1.197,0.371-2.391L474.836,97.186z"/>
		<path fill="#000000" d="M503.013,108.779h-2.97l0.263-1.256c-0.568,0.546-1.127,0.938-1.676,1.174    c-0.55,0.236-1.17,0.354-1.861,0.354c-1.201,0-2.175-0.409-2.921-1.228c-0.746-0.819-1.118-2.028-1.118-3.63    c0-1.856,0.523-3.533,1.571-5.033c1.049-1.499,2.435-2.248,4.16-2.248c1.557,0,2.725,0.618,3.504,1.855l1.256-5.993h3.133    L503.013,108.779z M495.776,104.063c0,0.829,0.209,1.478,0.627,1.943c0.419,0.466,0.934,0.698,1.545,0.698    c0.567,0,1.098-0.194,1.589-0.584s0.884-0.984,1.179-1.785s0.442-1.568,0.442-2.304c0-0.836-0.226-1.514-0.677-2.03    c-0.452-0.517-0.972-0.775-1.562-0.775c-0.917,0-1.67,0.51-2.26,1.529C496.07,101.774,495.776,102.877,495.776,104.063z"/>
		<path fill="#000000" d="M517.249,103.954h-7.86c-0.008,0.124-0.011,0.219-0.011,0.284c0,0.771,0.22,1.394,0.66,1.866    c0.44,0.474,0.977,0.71,1.61,0.71c1.041,0,1.852-0.539,2.435-1.616l2.806,0.47c-0.546,1.128-1.275,1.975-2.189,2.538    c-0.913,0.564-1.938,0.846-3.073,0.846c-1.557,0-2.823-0.492-3.799-1.479s-1.463-2.291-1.463-3.914    c0-1.586,0.44-2.998,1.321-4.235c1.201-1.674,2.915-2.511,5.142-2.511c1.419,0,2.548,0.438,3.385,1.315s1.255,2.104,1.255,3.684    C517.467,102.67,517.395,103.35,517.249,103.954z M514.607,102.044c0.008-0.139,0.012-0.244,0.012-0.317    c0-0.858-0.193-1.502-0.579-1.932s-0.902-0.645-1.55-0.645c-0.648,0-1.229,0.244-1.741,0.731    c-0.514,0.488-0.861,1.208-1.043,2.162H514.607z"/>
		<path fill="#000000" d="M518.373,108.779l3.352-16.004h3.122l-3.34,16.004H518.373z"/>
		<path fill="#000000" d="M527.03,97.186h3.134l-2.424,11.594h-3.133L527.03,97.186z M527.947,92.775h3.134l-0.59,2.838h-3.133    L527.947,92.775z"/>
		<path fill="#000000" d="M536.616,108.779h-2.697l-2.325-11.594h3.079l0.818,5.055c0.226,1.368,0.36,2.278,0.404,2.729    c0.058-0.124,0.311-0.596,0.759-1.414c0.447-0.818,0.722-1.312,0.824-1.479l2.882-4.891h3.384L536.616,108.779z"/>
		<path fill="#000000" d="M554.542,103.954h-7.86c-0.008,0.124-0.011,0.219-0.011,0.284c0,0.771,0.22,1.394,0.66,1.866    c0.44,0.474,0.977,0.71,1.61,0.71c1.041,0,1.852-0.539,2.435-1.616l2.806,0.47c-0.546,1.128-1.275,1.975-2.189,2.538    c-0.913,0.564-1.938,0.846-3.073,0.846c-1.557,0-2.823-0.492-3.799-1.479s-1.463-2.291-1.463-3.914    c0-1.586,0.44-2.998,1.321-4.235c1.201-1.674,2.915-2.511,5.142-2.511c1.419,0,2.548,0.438,3.385,1.315s1.255,2.104,1.255,3.684    C554.76,102.67,554.688,103.35,554.542,103.954z M551.9,102.044c0.008-0.139,0.012-0.244,0.012-0.317    c0-0.858-0.193-1.502-0.579-1.932s-0.902-0.645-1.55-0.645c-0.648,0-1.229,0.244-1.741,0.731    c-0.514,0.488-0.861,1.208-1.043,2.162H551.9z"/>
		<path fill="#000000" d="M557.938,97.186h2.925l-0.469,2.249c1.092-1.682,2.274-2.521,3.548-2.521c0.451,0,0.935,0.112,1.452,0.338    l-1.201,2.565c-0.284-0.102-0.586-0.152-0.906-0.152c-0.538,0-1.086,0.203-1.643,0.611c-0.557,0.407-0.992,0.951-1.305,1.632    c-0.313,0.681-0.622,1.76-0.928,3.236l-0.765,3.636h-3.133L557.938,97.186z"/>
	</g>
</g>
</svg>